/* XPM */
static char *linux[] = {
/* columns rows colors chars-per-pixel */
"23 24 117 2 ",
"   c None",
".  c #303030",
"X  c #313131",
"o  c #323232",
"O  c #333333",
"+  c #343434",
"@  c #363636",
"#  c #383838",
"$  c #3A3A3A",
"%  c #3C3C3C",
"&  c #3E3E3E",
"*  c #404040",
"=  c #424242",
"-  c #454545",
";  c #464646",
":  c #474747",
">  c #494949",
",  c #4B4B4B",
"<  c #4D4D4D",
"1  c #4E4E4E",
"2  c #505050",
"3  c #515151",
"4  c #525252",
"5  c #535353",
"6  c #545454",
"7  c #555555",
"8  c #5A5A5A",
"9  c #5E5E5E",
"0  c #5F5F5F",
"q  c #606060",
"w  c #616161",
"e  c #636363",
"r  c #656565",
"t  c #666666",
"y  c #6A6A6A",
"u  c #6D6D6D",
"i  c #6F6F6F",
"p  c #707070",
"a  c #717171",
"s  c #747474",
"d  c #757575",
"f  c #767676",
"g  c #787878",
"h  c #7A7A7A",
"j  c #7B7B7B",
"k  c #7E7E7E",
"l  c #7F7F7F",
"z  c #808080",
"x  c #818181",
"c  c #828282",
"v  c #848484",
"b  c #868686",
"n  c #878787",
"m  c #8B8B8B",
"M  c #8F8F8F",
"N  c #919191",
"B  c #959595",
"V  c #999999",
"C  c #9A9A9A",
"Z  c #9B9B9B",
"A  c #9D9D9D",
"S  c #9F9F9F",
"D  c #A0A0A0",
"F  c #A1A1A1",
"G  c #A2A2A2",
"H  c #A3A3A3",
"J  c #A4A4A4",
"K  c #A5A5A5",
"L  c #A8A8A8",
"P  c #ABABAB",
"I  c #ACACAC",
"U  c #AEAEAE",
"Y  c #AFAFAF",
"T  c #B0B0B0",
"R  c #B1B1B1",
"E  c #B6B6B6",
"W  c #B7B7B7",
"Q  c #B9B9B9",
"!  c #BABABA",
"~  c #C2C2C2",
"^  c #C3C3C3",
"/  c #C5C5C5",
"(  c #C6C6C6",
")  c #C7C7C7",
"_  c #C9C9C9",
"`  c #CACACA",
"'  c #CBCBCB",
"]  c #CCCCCC",
"[  c #CDCDCD",
"{  c #CECECE",
"}  c #CFCFCF",
"|  c #D0D0D0",
" . c #D3D3D3",
".. c #D5D5D5",
"X. c #D7D7D7",
"o. c #DADADA",
"O. c #DBDBDB",
"+. c #DDDDDD",
"@. c #E1E1E1",
"#. c #E3E3E3",
"$. c #E4E4E4",
"%. c #E5E5E5",
"&. c #E9E9E9",
"*. c #ECECEC",
"=. c #EDEDED",
"-. c #EFEFEF",
";. c #F1F1F1",
":. c #F2F2F2",
">. c #F3F3F3",
",. c #F7F7F7",
"<. c #F8F8F8",
"1. c #F9F9F9",
"2. c #FAFAFA",
"3. c #FBFBFB",
"4. c #FCFCFC",
"5. c #FDFDFD",
"6. c #FEFEFE",
/* pixels */
"              W D S T O.                      ",
"          D : . . . . $ m  .                  ",
"      [ a . . . . . . . . & D (               ",
"    ( 5 . . . . . . . . . . . r [             ",
"    y . . . . . @ K [ L 5 . . . : _ S         ",
"  U . . . . . . x 6.T _ <.x . . . $ ( L       ",
"  V . . . . . . K ( . . a <.: . . . @ _ T     ",
"& [ * . . . . . 0 #.8 . : ,.: . . . . & O.K   ",
"  r #.h . . . . . 6 Q *._ r . . . . . . 5 *.  ",
"  . < _ O.h . . . . . . . . . . . . . . . ^ T ",
"    . . y [ $.h . . . . . . . . . . . . . X.N ",
"        . . L v . . . . . . . . . . . . D ;.& ",
"          ^ h . . . . . . . . . . . . S <.i . ",
"        X.w . . . . . . . . . . . . K 6.x .   ",
"      [ < . . . . . . . . . . . @ Q 6.x .     ",
"     ., . . . . . . . . . . . < X.;.y .       ",
"  O.6 . . . . . . . . . . . h ;.X.< .         ",
"  D . . . . . . . . . . * Q 6.D @ .           ",
"U d . . . . . . . . . v ;.O.0 . .             ",
"B S . . . . . . . h +.*.m . .                 ",
"5 ;.d . . $ 0 V $.*.M $ . .                   ",
". l <.<.;.6.*.W i @ . .                       ",
"  . $ w 0 : . . . .                           ",
"      . . . . .                               "
};
